{
  "accessors": [
    {
      "bufferView": 2,
      "componentType": 5126,
      "count": 65532,
      "max": [
        24.235544204711914,
        24.235544204711914,
        26.002079010009766
      ],
      "min": [
        -24.235544204711914,
        -24.235544204711914,
        -36.835609436035156
      ],
      "type": "VEC3"
    },
    {
      "bufferView": 2,
      "byteOffset": 786384,
      "componentType": 5126,
      "count": 65532,
      "max": [
        1.0,
        1.0,
        0.9999969601631165
      ],
      "min": [
        -1.0,
        -1.0,
        -0.999272882938385
      ],
      "type": "VEC3"
    },
    {
      "bufferView": 1,
      "componentType": 5126,
      "count": 65532,
      "max": [
        0.75,
        1.0
      ],
      "min": [
        0.0,
        0.0
      ],
      "type": "VEC2"
    },
    {
      "bufferView": 0,
      "componentType": 5125,
      "count": 384552,
      "type": "SCALAR"
    },
    {
      "bufferView": 2,
      "byteOffset": 1572768,
      "componentType": 5126,
      "count": 35507,
      "max": [
        18.278541564941406,
        22.46499252319336,
        25.97128677368164
      ],
      "min": [
        -24.206193923950195,
        -24.233911514282227,
        -36.95760726928711
      ],
      "type": "VEC3"
    },
    {
      "bufferView": 2,
      "byteOffset": 1998852,
      "componentType": 5126,
      "count": 35507,
      "max": [
        0.9994449615478516,
        0.9955579042434692,
        0.9991655349731445
      ],
      "min": [
        -0.9992133378982544,
        -0.999994158744812,
        -0.9994593858718872
      ],
      "type": "VEC3"
    },
    {
      "bufferView": 1,
      "byteOffset": 524256,
      "componentType": 5126,
      "count": 35507,
      "max": [
        0.75,
        1.0
      ],
      "min": [
        0.107421875,
        0.234375
      ],
      "type": "VEC2"
    },
    {
      "bufferView": 0,
      "byteOffset": 1538208,
      "componentType": 5125,
      "count": 205272,
      "type": "SCALAR"
    }
  ],
  "asset": {
    "extras": {
      "author": "mypstom (https://sketchfab.com/mypstom)",
      "license": "CC-BY-4.0 (http://creativecommons.org/licenses/by/4.0/)",
      "source": "https://sketchfab.com/3d-models/pig-e845401a16ba4ba9b7ac3f2dc6237de9",
      "title": "Pig"
    },
    "generator": "Sketchfab-12.66.0",
    "version": "2.0"
  },
  "bufferViews": [
    {
      "buffer": 0,
      "byteLength": 2359296,
      "name": "floatBufferViews",
      "target": 34963
    },
    {
      "buffer": 0,
      "byteLength": 808312,
      "byteOffset": 2359296,
      "byteStride": 8,
      "name": "floatBufferViews",
      "target": 34962
    },
    {
      "buffer": 0,
      "byteLength": 2424936,
      "byteOffset": 3167608,
      "byteStride": 12,
      "name": "floatBufferViews",
      "target": 34962
    }
  ],
  "buffers": [
    {
      "byteLength": 5592544,
      "uri": "scene.bin"
    }
  ],
  "extensionsUsed": [
    "KHR_materials_clearcoat"
  ],
  "images": [
    {
      "uri": "textures/material_baseColor.png"
    }
  ],
  "materials": [
    {
      "doubleSided": true,
      "extensions": {
        "KHR_materials_clearcoat": {
          "clearcoatFactor": 0.2264672256097561,
          "clearcoatRoughnessFactor": 0.04
        }
      },
      "name": "material",
      "pbrMetallicRoughness": {
        "baseColorFactor": [
          0.6776867378048781,
          0.6776867378048781,
          0.6776867378048781,
          1.0
        ],
        "baseColorTexture": {
          "index": 0
        },
        "metallicFactor": 0.4337842987804878,
        "roughnessFactor": 0.7552400914634146
      }
    }
  ],
  "meshes": [
    {
      "name": "mesh_0_Mat_0",
      "primitives": [
        {
          "attributes": {
            "NORMAL": 1,
            "POSITION": 0,
            "TEXCOORD_0": 2
          },
          "indices": 3,
          "material": 0,
          "mode": 4
        }
      ]
    },
    {
      "name": "mesh_0_Mat_0",
      "primitives": [
        {
          "attributes": {
            "NORMAL": 5,
            "POSITION": 4,
            "TEXCOORD_0": 6
          },
          "indices": 7,
          "material": 0,
          "mode": 4
        }
      ]
    }
  ],
  "nodes": [
    {
      "children": [
        1
      ],
      "matrix": [
        1.0,
        0.0,
        0.0,
        0.0,
        0.0,
        2.220446049250313e-16,
        -1.0,
        0.0,
        0.0,
        1.0,
        2.220446049250313e-16,
        0.0,
        0.0,
        0.0,
        0.0,
        1.0
      ],
      "name": "Sketchfab_model"
    },
    {
      "children": [
        2
      ],
      "matrix": [
        1.0,
        0.0,
        0.0,
        0.0,
        0.0,
        0.0,
        1.0,
        0.0,
        0.0,
        -1.0,
        0.0,
        0.0,
        0.0,
        0.0,
        0.0,
        1.0
      ],
      "name": "e1b8e9e9454c4d858b00144fb4eda905.fbx"
    },
    {
      "children": [
        3,
        5
      ],
      "name": "RootNode"
    },
    {
      "children": [
        4
      ],
      "matrix": [
        -0.6667539179723694,
        -0.3329841223496842,
        -0.6667539179723697,
        0.0,
        -0.23545533094091264,
        0.9429324335619231,
        -0.2354553309409128,
        0.0,
        0.7071067811865478,
        -4.163336342344337e-17,
        -0.7071067811865472,
        0.0,
        171.0009002685547,
        111.71809387207031,
        154.05459594726563,
        1.0
      ],
      "name": "CINEMA_4D_Editor"
    },
    {
      "name": "Object_4"
    },
    {
      "children": [
        6,
        7
      ],
      "matrix": [
        1.0,
        0.0,
        0.0,
        0.0,
        0.0,
        1.0,
        0.0,
        0.0,
        0.0,
        0.0,
        1.0,
        0.0,
        0.0,
        23.06073570251465,
        0.0,
        1.0
      ],
      "name": "mesh_0"
    },
    {
      "mesh": 0,
      "name": "mesh_0_Mat_0"
    },
    {
      "mesh": 1,
      "name": "mesh_0_Mat_0"
    }
  ],
  "samplers": [
    {
      "magFilter": 9729,
      "minFilter": 9987,
      "wrapS": 10497,
      "wrapT": 10497
    }
  ],
  "scene": 0,
  "scenes": [
    {
      "name": "Sketchfab_Scene",
      "nodes": [
        0
      ]
    }
  ],
  "textures": [
    {
      "sampler": 0,
      "source": 0
    }
  ]
}
